<svg xmlns="http://www.w3.org/2000/svg" width="800" height="132"><path fill="#F9F9F9" d="M671 53h95v8c-2.5 2.5-3.979 2.235-7.39 2.249l-2.273-.022h-2.395c-2.618 0-5.237-.016-7.856-.032l-5.44-.008c-4.777-.008-9.554-.028-14.332-.05-4.873-.02-9.746-.03-14.619-.04Q697.348 63.066 683 63l1 8 81 1 1 9c-1.743 1.743-4.006 1.12-6.328 1.124l-2.313-.01h-2.424c-2.657 0-5.313-.009-7.97-.016l-5.511-.005q-7.268-.006-14.535-.024-7.41-.014-14.82-.02Q697.55 82.033 683 82c.485 4.646.485 4.646 2 9l3.03.031q14.106.147 28.21.308 7.252.084 14.505.158 6.993.072 13.986.156 2.673.031 5.348.056 3.732.037 7.464.086l2.256.017c5.087.074 5.087.074 6.201 1.188.133 1.813.133 1.813.125 4l.008 2.188C766 101 766 101 765 102c-2.891.095-5.759.126-8.65.114h-2.75c-3.014 0-6.028-.009-9.041-.016l-6.251-.005q-8.244-.006-16.488-.024-8.405-.014-16.81-.02-16.506-.016-33.01-.049c-7.306-14.612-1.363-32.667-1-49"/><path fill="#F9FAFA" d="M385.86 50.886h3.498l3.747.016 3.866.005q5.07.007 10.142.024 5.169.014 10.338.02a13372 13372 0 0 1 18.14.042Q437.796 51 440 51q2.175.102 4.352.219l2.578.136 2.695.145 2.719.145L459 52v10h-78v9l2.655.011q12.403.056 24.806.173c4.25.04 8.501.072 12.752.087 4.104.015 8.208.05 12.313.097q2.345.022 4.69.024c2.196.002 4.39.03 6.585.062l3.782.027c4.911.746 7.957 3.059 11.417 6.519.484 3.082.484 3.082.75 6.812l.297 3.708c-.062 4.605-.995 7.259-3.984 10.73-3.908 3.315-7.984 2.887-12.84 2.864h-2.395c-2.613 0-5.226-.009-7.84-.016l-5.435-.005q-7.154-.006-14.308-.024-7.299-.014-14.599-.02-14.322-.016-28.646-.049l-1-10h79l-1-8 1-2-2.693.027q-12.579.12-25.159.18c-4.311.021-8.622.05-12.934.095q-6.243.063-12.488.078a529 529 0 0 0-4.758.043c-2.226.03-4.451.033-6.677.031l-3.836.027c-4.118-.573-6.244-1.884-9.455-4.481-3.617-5.426-2.723-12.695-2-19 1.431-3.155 3.01-5.23 6-7 3.669-.914 7.087-1.122 10.86-1.114"/><path fill="#FBFCFC" d="M346 51v2l3.188.125c3.936.903 5.366 1.822 7.82 4.972 1.921 3.686 1.442 7.428 1.117 11.465l-.086 2.538c-.278 4.397-.607 6.376-3.484 9.865L352 84l-2 2 1.813 1.688c3.248 3.434 5.102 5.818 5.375 10.624L357 101c-3.734.879-7.168 1.09-11 1-1.021-2.553-2.032-5.091-2.937-7.687-.961-2.624-.961-2.624-4.063-4.313-2.81-.33-2.81-.33-6.032-.319l-3.76-.06-4.063-.035q-2.079-.028-4.158-.059c-3.644-.051-7.289-.09-10.934-.128-3.72-.04-7.44-.091-11.16-.141A7932 7932 0 0 0 277 89l.508 1.866c.805 3.491.02 6.613-.508 10.134h-12a15314 15314 0 0 1-.427-13.922l-.146-4.722C263.641 57.14 263.641 57.14 265 52c27.004-.657 53.987-1.18 81-1m-69 13v11h2v2h66V64z"/><path fill="#F8F9F9" d="M223.64 50.934q5.305-.078 10.61-.121l2.944-.04 2.634-.003 2.185-.013c2.33.285 3.957 1.093 5.987 2.243v2l3 1c2.842 3.722 3.376 6.488 3.363 11.113l-.002 3.533-.048 3.666.01 3.631c-.096 15.767-.096 15.767-4.92 20.727-3.503 2.764-6.86 3.077-11.22 3.072l-2.295.055c-2.484.052-4.966.067-7.45.078l-5.194.07c-5.415.064-10.829.063-16.244.055l-5.355.008q-6.392-.001-12.783-.1a536 536 0 0 0-4.82-.045 359 359 0 0 1-6.733-.12l-3.85-.068c-4.563-.89-6.214-2.385-9.459-5.675-1.168-3.504-1.18-6.689-1.203-10.336l-.017-2.17q-.014-2.272-.02-4.545a733 733 0 0 0-.072-6.926 2426 2426 0 0 1-.016-4.421l-.038-2.081c.02-4.363.605-7.112 3.366-10.521 4.494-3.892 9.458-3.473 15.11-3.512l3.005-.055a1384 1384 0 0 1 9.635-.12l6.577-.097c5.294-.077 10.588-.135 15.882-.187q3.715-.04 7.432-.095M175 64v25c2.638 1.319 4.61 1.127 7.564 1.13l3.53.009 3.832-.006 3.924.003q4.116.001 8.234-.006 5.265-.006 10.531.004c3.354.004 6.707.001 10.06-.001l3.814.006 3.56-.01 3.123-.002c2.74-.123 5.187-.383 7.828-1.127 1.245-2.49 1.13-4.19 1.133-6.973l.004-2.974-.012-3.115.012-3.127-.004-2.971-.004-2.739c.105-2.088.105-2.088-1.129-3.101a130 130 0 0 0-6.172-.114h-1.951c-2.138 0-4.275.009-6.412.016l-4.435.005q-5.847.006-11.694.024-5.962.014-11.924.02c-7.804.01-15.608.029-23.412.049"/><path fill="#FBFCFB" d="m133.789 50.951 3.515-.029 3.074-.032c3.627.152 5.826.767 8.622 3.11 2 5.413 2.307 10.329 2.25 16.063l.023 2.353c-.015 4.585-.534 8.27-2.273 12.584h-2l-1 3-74 1-1 11c-1 1-1 1-3.504 1.098l-3.059-.035-3.066-.028L59 101c-1.326-4.942-1.047-9.793-.914-14.86l.064-2.863q.069-2.985.147-5.97c.078-3.06.145-6.119.21-9.178l.141-5.8.06-2.788c.177-6.426.177-6.426 1.292-7.541 2.108-.124 4.221-.178 6.333-.205l2.006-.03q3.308-.047 6.614-.081l4.61-.063q6.1-.083 12.197-.153 4.921-.06 9.844-.129 5.925-.079 11.85-.155l2.238-.03c6.032-.076 12.065-.125 18.097-.203M71 63c-1.244 2.488-.926 3.706-.563 6.438.336 2.578.563 4.954.563 7.562h68V64c-22.675-.744-45.312-1.152-68-1"/><path fill="#F8F9F8" d="M507.007 51.507c3.36.831 6.803.546 10.243.493 9.676-.082 19.33.18 29 .5l2.213.073q6.27.207 12.537.427c1 3 1 3 0 11l-76 1c-1.226 12.674-1.226 12.674 2 24 3.193.48 3.193.48 7.02.432l2.188.031c2.392.03 4.783.04 7.175.049l4.969.054c4.363.048 8.726.077 13.089.104 4.45.03 8.901.076 13.352.121q13.104.127 26.207.209.292 2.155.562 4.312l.317 2.426C562 99 562 99 561 102c-9.893.858-19.664 1.13-29.594 1.02l-2.145-.022q-5.592-.055-11.186-.13c-3.83-.05-7.66-.076-11.492-.097-2.972-.02-5.943-.058-8.915-.1a450 450 0 0 0-4.239-.032c-1.97-.007-3.941-.042-5.911-.077l-3.385-.036c-3.884-.652-6.065-2.096-9.133-4.526-4.244-6.365-3.217-14.543-3.25-21.938l-.063-3.498c-.033-7.237.222-12.536 4.743-18.427 6.812-4.932 22.657-4.63 30.577-2.63"/><path fill="#FBFBFB" d="M580 51v2l4-1 1 19 63 1V53l11-1c.982 9.577 1.155 19.044 1.13 28.658-.005 2.563 0 5.125.007 7.688q0 2.442-.004 4.884l.006 2.323c-.024 5.332-.024 5.332-1.139 6.447-1.664.098-3.333.13-5 .125l-2.75.008C649 102 649 102 648 101a220 220 0 0 1-.625-8.437l-.156-2.393c-.343-5.921-.343-5.921.781-8.17h-64v2l3 1-3 1 .035 3.246.028 4.192.025 2.142c.009 1.807-.036 3.614-.088 5.42-1 1-1 1-3.031 1.133l-2.469-.008-2.469.008C574 102 574 102 573 101a70 70 0 0 1-.114-4.52v-2.912l.016-3.166.005-3.224c.005-3.413.018-6.827.03-10.24q.009-3.462.014-6.924.017-8.508.049-17.014c2.647-1.46 3.894-2 7-2"/><path fill="#F3F5F5" d="m265 52 4 1-1 1a76 76 0 0 0-.316 4.61l-.128 2.949-.118 3.191-.13 3.238c-.378 10.34-.405 20.668-.308 31.012l9 1-1-12h69l1-8c-1.826-1.826-4.717-1.173-7.172-1.205l-1.951-.03q-3.207-.047-6.412-.081l-4.435-.063a6408 6408 0 0 0-11.694-.153q-5.963-.077-11.924-.161Q289.706 78.145 278 78v-2h-2c-.702-4.386-1.108-8.558-1-13h2c.762 4.316 1.16 7.744 0 12h2v2h66l-1-5c.938-2.312.938-2.312 2-4 .514 3.081 1.02 6.154 1.438 9.25.326 2.881.326 2.881 2.562 4.75l-1 1 3 1-2 2 1.813 1.688c3.248 3.434 5.102 5.818 5.375 10.624L357 101c-3.734.879-7.168 1.09-11 1-1.021-2.553-2.032-5.091-2.937-7.687-.961-2.624-.961-2.624-4.063-4.313-2.81-.33-2.81-.33-6.032-.319l-3.76-.06-4.063-.035q-2.079-.028-4.158-.059c-3.644-.051-7.289-.09-10.934-.128-3.72-.04-7.44-.091-11.16-.141A7932 7932 0 0 0 277 89l.508 1.866c.805 3.491.02 6.613-.508 10.134h-12a15314 15314 0 0 1-.427-13.922l-.146-4.722C263.63 56.743 263.63 56.743 265 52"/><path fill="#EBEDEC" d="M682 61h81l1 2h-81l1 8 81 1v8h-1v-6l-1.748.509c-2.26.493-3.99.52-6.287.35l-2.41-.155-2.617-.177c-8.416-.483-16.762-.545-25.188-.336l-3.407.084q-6.952.184-13.903.394c-3.438.1-6.876.187-10.315.272l-3.169.107-2.948.071-2.574.077C687 75 687 75 682 73z"/><path fill="#EAEBEA" d="M659 52c1.05 9.559 1.155 19.056 1.13 28.658-.005 2.563 0 5.125.007 7.688q0 2.442-.004 4.884l.006 2.323c-.024 5.332-.024 5.332-1.139 6.447-1.664.098-3.333.13-5 .125l-2.75.008C649 102 649 102 648 101c-.291-2.82-.515-5.61-.687-8.437l-.182-2.393c-.128-2.053-.137-4.113-.131-6.17l2-2h3v17h6l-1-44h-4l-.113 2.922-.2 3.828-.175 3.797c-.517 3.484-1.137 4.932-3.512 7.453l-3-1h2V53c7-1 7-1 11-1"/><path fill="#CACECD" d="m476 98 3.52.49c4.061.505 8.055.653 12.15.684l2.18.02q2.32.021 4.64.036 3.668.026 7.337.065 10.423.105 20.845.182 6.395.049 12.788.12 2.435.024 4.869.037c2.26.012 4.518.036 6.778.063l3.897.031C558 100 558 100 560 102c-9.533.91-18.961 1.112-28.531.984l-4.348-.05a3395 3395 0 0 1-9.025-.121c-3.848-.055-7.695-.092-11.543-.124-2.98-.028-5.96-.069-8.94-.113a618 618 0 0 0-4.259-.043c-1.978-.014-3.956-.05-5.934-.085l-3.4-.043c-3.358-.45-5.302-1.417-8.02-3.405z"/><path fill="#DEDEDE" d="M176 62q12.83-.141 25.66-.207c3.972-.021 7.944-.05 11.915-.095q5.748-.063 11.496-.078 2.195-.01 4.389-.043c2.047-.029 4.093-.033 6.14-.031l3.534-.027C242 62 242 62 243.837 63.966L245 66l1 1a63 63 0 0 1 .098 4.254l-.01 2.588-.025 2.72-.014 2.733Q246.03 82.647 246 86l-2 1c-5.233-5.233-2.63-14.608-3-22l-66-1z"/><path fill="#E6E7E7" d="M458 54h1v8h-78v9l4 2-2 1v2h-6l.496-1.64c.59-2.762.6-5.288.567-8.11l-.028-2.984L378 61c3.01-1.505 6.09-1.08 9.387-1.022l2.306.03c2.522.032 5.043.073 7.565.113l5.238.072q6.9.096 13.8.202 7.037.104 14.075.2Q444.186 60.79 458 61z"/><path fill="#E7E8E8" d="m265 52 4 1-1 1a76 76 0 0 0-.316 4.61l-.128 2.949-.118 3.191-.13 3.238c-.378 10.34-.405 20.668-.308 31.012l9 1-1-12 4 1h-2l.563 1.5c.638 3.65-.014 6.84-.563 10.5h-12a15314 15314 0 0 1-.427-13.922l-.146-4.722C263.63 56.743 263.63 56.743 265 52"/><path fill="#EBEBEB" d="M672 53h94v7l-.937-1.937c-.898-2-.898-2-2.063-3.063-2.83-.125-5.636-.186-8.467-.205l-2.69-.03q-4.424-.046-8.847-.081l-6.116-.063q-8.067-.082-16.133-.153-8.224-.077-16.448-.161Q688.149 54.145 672 54z"/><path fill="#F4F6F6" d="m68 60 6 1q3.1.176 6.203.246l3.469.1q3.6.092 7.203.172l3.453.103 3.153.076C100 62 100 62 102 64H71l1 11-3 1z"/><path fill="#E8E8E8" d="M241 62c4.737 3.603 4.737 3.603 5.413 7.194.079 2.555.023 5.065-.1 7.618l-.069 2.678c-.059 2.17-.148 4.34-.244 6.51l-2 1c-2.561-2.561-2.297-3.666-2.414-7.227l-.117-3.125-.094-3.273-.117-3.297Q241.116 66.04 241 62"/><path fill="#EFF1F0" d="M648 82h4v17l-3 1c-1.09-3.27-1.356-6.13-1.625-9.562-.095-1.157-.19-2.313-.29-3.504C647 84 647 84 648 82"/><path fill="#E9EBEB" d="M352 88c3.896 4.776 5.135 6.804 5 13-3.734.879-7.168 1.09-11 1v-3l10 1-3-1c-3-4.333-3-4.333-3-7h2z"/><path fill="#EDF0EF" d="M252 67h1c.229 3.332.43 6.666.625 10l.195 2.832c.327 5.834.07 10.612-1.82 16.168l-2 1 .465-3.281c.674-5.392.88-10.792 1.097-16.219l.131-3.07q.158-3.715.307-7.43"/><path fill="#E8EAE8" d="M139.074 62.594C141 64 141 64 141.644 66.53l.168 2.969.208 2.969C142 75 142 75 141 77l-3-1 .105-2.336.083-3.039.105-3.023L138 65l-3-2c2-1 2-1 4.074-.406"/><path fill="#EBEBEB" d="m68 60 9 2v1l-6 1 1 11-3 1z"/><path fill="#EAEBEA" d="m373 54 2 4h-3v3h-2l1 16c-2.909-2.909-2.368-5.921-2.375-9.812l-.074-2.159c-.021-3.828.316-5.832 2.472-9.04z"/><path fill="#F0F0F0" d="m682 86 .938 1.938c.897 1.998.897 1.998 2.062 3.062 2.526.237 5.031.422 7.563.563l2.154.13q2.64.159 5.283.307v1l-3.14.184-4.11.254-2.066.119c-3.328.21-6.487.462-9.684 1.443 0-3.112.456-5.942 1-9"/><path fill="#F2F2F2" d="m95.066 75.602 3.496.023 3.504-.023L105 76l2 3H89c3-3 3-3 6.066-3.398"/><path fill="#F5F6F6" d="M243 72h1l1 14h2l-2 4h-3z"/><path fill="#EFF1F0" d="M266 64h1v13h-3a351 351 0 0 1-.125-4.812l-.07-2.708C264 67 264 67 266 64"/><path fill="#E4E5E5" d="M275 63h2c.702 4.386 1.108 8.558 1 13h-2c-.702-4.386-1.108-8.558-1-13"/><path fill="#ECECEC" d="M70 76h19v1l-3.14.184-4.11.254-2.066.119c-3.328.21-6.487.462-9.684 1.443z"/><path fill="#F0F2F1" d="m379 70 6 2-2 4h-6z"/><path fill="#E9E9E9" d="M69 88h2c1.231 3.694.644 6.206 0 10-2-2-2-2-2.195-3.945z"/><path fill="#F1F2F1" d="m221 89 2 3-2 2c-2.625-.375-2.625-.375-5-1v-2h5z"/><path fill="#F0F1F0" d="M577 51h3v2l4-1-1 3-2-1-1 3c-3-3.75-3-3.75-3-6"/><path fill="#EFF4F4" d="m449 85 2 1-1 7-4 1v-2h3l-.562-2.375C448 87 448 87 449 85"/><path fill="#D2D2D2" d="m485 65 2 1-2 2z"/></svg>