<svg xmlns="http://www.w3.org/2000/svg" width="1200" height="166"><path fill="#010001" d="m1001.504 37.873 3.62-.009 4.009.007 4.192-.006q5.71-.005 11.417 0c3.974.003 7.948 0 11.923 0q10.013-.004 20.024.005 11.593.007 23.185-.002 9.935-.007 19.87-.003 5.94.003 11.883-.001 5.584-.004 11.17.005 2.055 0 4.11-.002 2.795-.002 5.589.006l3.166.001C1138 38 1138 38 1139 39c.1 2.511.139 4.989.125 7.5l.012 2.129c-.01 5.244-.01 5.244-1.137 6.371-1.62.108-3.243.147-4.866.158l-3.191.03-3.531.017-3.695.03q-5.03.04-10.06.068-5.25.035-10.502.076-9.95.074-19.9.138-11.325.076-22.65.16-23.303.17-46.605.323v11l4.739-.007q22.05-.03 44.103-.045 11.339-.007 22.677-.023 9.879-.015 19.758-.02 5.234 0 10.468-.01c3.889-.009 7.778-.009 11.667-.009l3.53-.01 3.192.004 2.79-.003C1138 67 1138 67 1139 68c.1 2.677.139 5.323.125 8l.012 2.273c-.01 5.6-.01 5.6-1.137 6.727-1.62.096-3.243.122-4.866.12l-3.191.004-3.531-.01h-3.695q-5.03-.001-10.06-.013c-3.5-.006-7.001-.006-10.502-.008q-9.95-.005-19.9-.021-11.325-.016-22.65-.022-23.303-.016-46.605-.05v11l4.694-.013q21.852-.06 43.705-.09 11.235-.014 22.472-.048 9.79-.03 19.58-.037 5.187-.003 10.373-.023c3.856-.017 7.71-.017 11.566-.016l3.492-.022 3.17.008 2.765-.005C1137 96 1137 96 1139 98c.145 2.58.187 5.05.125 7.625l-.027 2.14A625 625 0 0 1 1139 113c-3.14 1.047-5.328 1.126-8.624 1.127l-3.548.009-3.897-.007-4.1.006q-5.568.004-11.137 0c-3.882-.003-7.763 0-11.645 0q-9.777.003-19.553-.005-11.312-.006-22.625.002-9.705.007-19.41.003-5.799-.003-11.599.001-5.45.004-10.9-.005-2.963-.002-5.925.005l-3.54-.009-3.088-.001C997 114 997 114 995 113q-.034-14.446-.052-28.893a9878 9878 0 0 0-.023-13.415q-.016-6.468-.02-12.936-.003-2.472-.01-4.946-.01-3.451-.009-6.904l-.006-3.976c.205-4.99 2.135-4.055 6.624-4.057M548.21 37.53l3.751-.007a1320 1320 0 0 1 10.158.038c3.543.022 7.086.021 10.629.023q8.918.011 17.835.06c7.639.04 15.278.057 22.918.067q9.843.014 19.687.045l6.34.016c3.926.01 7.853.03 11.78.051l3.564.008 3.22.022 2.816.013C663 38 663 38 664 39c.1 2.511.139 4.989.125 7.5l.012 2.129c-.01 5.244-.01 5.244-1.137 6.371a71 71 0 0 1-4.524.158l-2.962.03-3.276.017-3.429.03q-5.64.046-11.282.081l-7.798.063q-9.232.074-18.465.138-10.509.076-21.018.16-21.622.17-43.246.323-.039 2.22-.063 4.437l-.035 2.497c-.135 2.058-.135 2.058 1.098 3.066a61 61 0 0 0 4.193.145l2.74.02 3.031.009 3.173.02q3.424.021 6.848.036 5.415.026 10.828.065 15.399.104 30.798.182 9.406.049 18.813.12 3.591.024 7.182.037c3.348.012 6.695.036 10.042.063l3.012.002 2.766.03 2.398.012c4.033.48 5.84 1.85 8.403 4.974 3.057 5.783 2.268 12.494 2.148 18.847l-.004 3.944c-.111 12.076-.111 12.076-2.371 16.494-6.228 3.642-12.18 3.414-19.253 3.356l-3.693.007q-4.986.001-9.972-.026c-3.481-.015-6.963-.014-10.445-.015a5412 5412 0 0 1-17.516-.04c-7.502-.03-15.005-.04-22.508-.044-6.448-.004-12.897-.017-19.346-.03q-3.112-.007-6.226-.01c-3.855-.006-7.71-.021-11.564-.037l-3.498-.003-3.16-.018-2.763-.009C530 114 530 114 529 113a210 210 0 0 1-.063-8.063l.014-2.298q.02-2.82.049-5.639c2.412-1.206 3.912-1.123 6.606-1.12l2.94-.004 3.238.01h3.4c3.722 0 7.445.009 11.168.016l7.726.005q9.143.005 18.285.021 10.407.016 20.815.022 21.411.016 42.822.05l.125-3.813.07-2.144c-.062-2.357-.062-2.357-2.195-5.043-1.931-.437-1.931-.437-4.186-.34h-2.66l-2.925.047-3.075.013q-3.313.018-6.628.055c-3.496.038-6.993.057-10.49.072-8.689.04-17.378.113-26.067.184q-10.999.09-21.999.137c-3.444.02-6.888.057-10.333.095l-6.349.03-2.9.047c-6.103.001-10.286-.88-15.2-4.778-3.895-5.124-2.372-13.457-2.376-19.5l-.037-3.865-.005-3.724-.013-3.399c.342-4.329 1.224-6.887 4.061-10.191 4.95-2.929 9.744-2.415 15.392-2.353"/><path fill="#020102" d="m370.167 37.853 3.395-.022 3.757-.008 3.932-.02q5.355-.025 10.711-.036l6.692-.018q10.466-.029 20.932-.041 12.083-.015 24.167-.077 9.336-.044 18.673-.048c3.718-.002 7.436-.011 11.154-.036 4.151-.028 8.302-.024 12.454-.017l3.727-.039c6.32.039 10.524.074 15.239 4.509 2.393 4.767 2.321 9.61 2.336 14.836l.02 2.54q.015 2.65.015 5.3c.004 2.684.04 5.367.078 8.05q.009 2.587.012 5.172l.043 2.403c-.047 5.87-1.58 9.61-4.504 14.699h-2l.656 1.645.844 2.167.844 2.145C504 103 504 103 504 106h2c2.109 3.473 2.109 3.473 1.559 6.14L507 114a901 901 0 0 1-7.812.125c-.738.017-1.476.034-2.237.05-3.863.036-5.66.019-8.951-2.175-1.098-2.242-1.098-2.242-2.062-4.875-.934-2.512-1.84-4.933-3.06-7.32C482 98 482 98 482 96l-2 1c-3.081.123-6.14.186-9.223.205l-2.898.03q-4.755.046-9.512.081l-6.583.063q-8.675.083-17.35.153-8.848.077-17.696.161-17.37.162-34.738.307l-.148 3.465-.227 4.472-.094 2.288c-.104 1.93-.31 3.854-.531 5.775l-2 1-2-1c-2.04-.07-4.083-.084-6.125-.063l-3.32.028L365 114c-1.153-3.67-1.127-7.127-1.13-10.956l-.005-2.095q-.004-3.418.002-6.836 0-2.375-.003-4.75-.002-4.973.006-9.944.006-6.387-.004-12.772a5166 5166 0 0 1 0-9.803q0-2.355-.002-4.712-.003-3.282.007-6.564l.002-3.78c.216-4.736 2.033-3.917 6.294-3.935M382 55c-1.392 4.176-1.224 8.126-1.25 12.5l-.062 2.629-.016 2.527-.028 2.307c.46 2.635 1.28 3.383 3.356 5.037 2.036.425 2.036.425 4.309.323l2.664-.013 2.914-.061 3.076-.028c3.36-.035 6.72-.09 10.08-.147q3.491-.042 6.982-.08c6.13-.07 12.261-.16 18.391-.252 6.254-.09 12.508-.165 18.762-.24Q469.589 79.275 488 79c1.547-2.94 2.255-4.919 2.266-8.258l.007-2.394-.023-2.473.023-2.496-.007-2.387-.007-2.176c-.11-2.067-.11-2.067-2.259-3.816-1.973-.297-1.973-.297-4.265-.24l-2.71-.009-2.983.022h-3.133c-3.43 0-6.861.016-10.292.032l-7.12.008a8126 8126 0 0 0-18.772.05c-6.38.02-12.762.03-19.143.04Q400.791 54.934 382 55M217.269 37.626l3.233-.021 3.531.023 3.731-.011c3.374-.007 6.748 0 10.122.013 3.533.011 7.066.007 10.6.005q8.9 0 17.801.029c6.857.021 13.713.024 20.569.018q9.9-.007 19.798.011 4.21.007 8.42.004c3.921-.002 7.842.012 11.764.028l3.525-.007 3.241.021 2.809.007c3.584.352 6.445 1.394 9.325 3.563 6.49 8.696 3.38 27.042 3.15 37.187-.076 3.523-.125 7.046-.171 10.57q-.065 3.374-.135 6.746l-.038 3.18c-.254 9.44-.254 9.44-3.544 13.008-3.58 1.74-6.443 2.25-10.402 2.247l-3.246.013-3.53-.017-3.741.006q-5.067.003-10.134-.013c-3.537-.01-7.074-.007-10.61-.007q-8.905-.002-17.81-.023-10.297-.023-20.594-.02-9.907 0-19.816-.013-4.216-.006-8.433-.006-5.882-.004-11.765-.022l-3.542.002-3.228-.013-2.81-.005c-3.154-.174-4.989-.85-7.464-2.817-3.296-4.064-3.001-9.077-3.036-14.146l-.03-3.408-.012-3.637-.017-3.772q-.014-3.94-.02-7.88-.008-4.035-.041-8.068c-.03-3.885-.041-7.77-.047-11.655l-.038-3.643.01-3.398-.011-2.98c.546-4.055 2.14-6.606 5.146-9.347 2.712-1.682 4.314-1.753 7.49-1.752M222 55q-.037 8.517-.055 17.035-.008 2.9-.02 5.8c-.013 2.772-.018 5.545-.023 8.317l-.015 2.636c0 2.071.05 4.142.113 6.212 1.541 1.541 2.976 1.144 5.124 1.165l2.694.034 2.978.022 3.12.035c3.42.037 6.842.066 10.264.096l7.103.07q7.458.072 14.916.136 9.572.083 19.144.185 7.34.074 14.68.139 3.53.031 7.06.07 4.93.048 9.862.086l2.966.034 2.71.017 2.357.021c2.228-.032 2.228-.032 5.022-1.11q-.177-8.517-.372-17.035-.065-2.9-.125-5.8-.088-4.159-.187-8.317l-.05-2.636c.284-3.923.284-3.923-1.266-7.212a61 61 0 0 0-4.22-.12l-2.758-.004-3.05.01h-3.192c-3.501 0-7.002.009-10.503.016l-7.26.005q-9.575.006-19.15.024-9.763.014-19.525.02-19.17.016-38.342.049M52.212 37.846l3.424-.026 3.79-.013 3.967-.025c4.353-.026 8.707-.041 13.06-.055l4.492-.017q9.342-.033 18.684-.051 13.396-.023 26.794-.107 9.414-.056 18.828-.063c3.75-.004 7.5-.016 11.25-.048 4.185-.036 8.37-.032 12.555-.024l3.766-.05c8.403.061 8.403.061 12.362 2.982 4.066 5.936 4.066 5.936 4.059 9.8l.01 2.518-.023 2.708v2.79q-.006 2.92-.024 5.84c-.018 2.983-.02 5.966-.02 8.948l-.018 5.672-.003 2.708-.02 2.519-.011 2.213C189 88 189 88 188 91h-2l-.688 1.875c-1.736 2.811-3.203 3.12-6.312 4.125-2.411.246-2.411.246-4.967.24l-2.953.009-3.204-.022h-3.401c-3.707 0-7.413-.016-11.12-.032l-7.713-.008a8364 8364 0 0 1-18.221-.043c-6.917-.022-13.833-.033-20.75-.043Q85.335 97.068 64 97l-1 17-3 1v-2l-1.707.492c-2.397.531-4.528.641-6.98.633l-2.387.008C47 114 47 114 46 113c-.1-2.295-.128-4.593-.13-6.89l-.005-2.183q-.004-3.59.002-7.177l-.003-4.966q-.002-5.21.006-10.42.006-6.695-.004-13.388-.005-5.13 0-10.259 0-2.469-.002-4.937-.003-3.445.007-6.89l.002-3.967c.212-4.87 1.94-4.052 6.339-4.077M63 56c-.306 3.45-.278 6.913-.313 10.375L62.6 69.32l-.026 2.828-.044 2.6c.29 2.316.29 2.316 1.895 3.869 3.974 2.135 7.794 1.8 12.237 1.771l2.968.016c3.238.013 6.476.005 9.714-.006q3.374.003 6.747.01 7.072.005 14.143-.017c6.046-.017 12.092-.007 18.138.01 4.645.012 9.29.008 13.934 0q3.344-.003 6.689.008c3.114.007 6.228-.004 9.343-.02l2.8.018c3.614-.036 6.173-.063 9.437-1.692 2.444-2.942 1.917-6.455 1.8-10.09l-.004-2.29c-.068-4.307-.709-7.323-2.371-11.335q-20.705-.034-41.41-.052-9.614-.007-19.226-.023-9.27-.016-18.538-.02-3.544-.003-7.09-.01-4.945-.01-9.892-.009l-2.993-.01-2.707.004-2.366-.003c-1.803-.07-1.803-.07-2.778 1.123"/><path fill="#010101" d="m699.302 37.76 3.255-.009 3.555.022h3.756q5.09.002 10.183.024c3.548.013 7.097.014 10.646.016 6.718.006 13.436.023 20.155.043 7.649.022 15.298.033 22.948.043q23.6.032 47.2.101c1.549 3.098.832 6.262.562 9.625l-.158 2.14Q821.208 52.384 821 55c-3.317.743-6.374 1.123-9.77 1.114h-2.822l-3.057-.016-3.249-.005q-3.486-.006-6.972-.018-5.508-.019-11.016-.024-11.682-.018-23.364-.051-13.555-.037-27.11-.056-5.442-.01-10.884-.032l-6.624-.01-3.082-.015h-2.787l-2.436-.007c-1.846-.08-1.846-.08-2.827 1.12-.16 2.737-.26 5.452-.316 8.191l-.063 2.485q-.097 3.944-.184 7.886l-.13 5.334Q704.146 87.448 704 94c3.058 1.77 5.252 2.248 8.77 2.24l2.899.009 3.158-.022h3.342c3.647 0 7.293-.016 10.94-.032l7.584-.008q8.962-.012 17.923-.043c6.803-.022 13.606-.033 20.409-.043Q800.012 96.069 821 96c1.231 3.693.872 6.88.562 10.687l-.158 2.127q-.196 2.594-.404 5.186-23.679.035-47.358.052-10.995.007-21.99.023-9.585.015-19.171.02-5.074 0-10.147.01-5.67.01-11.34.009l-3.38.01c-14.16-.018-14.16-.018-18.514-3.33-3.649-5.042-2.77-11.578-2.694-17.513q.003-2.017 0-4.034.004-4.215.052-8.432c.04-3.591.044-7.181.037-10.773-.004-2.774.009-5.549.026-8.323.01-1.964.01-3.929.01-5.893l.05-3.64c.007-1.053.016-2.105.025-3.19.47-3.575 1.475-5.947 3.394-8.996 3.122-2.032 5.622-2.248 9.302-2.24M857 38l.076 2.355q.175 5.26.361 10.52l.12 3.707.127 3.535.11 3.27c.04 2.594.04 2.594 1.206 4.613h99l1-27c1.756-1.756 4.036-1.132 6.371-1.137l2.129.012 2.129-.012c5.244.01 5.244.01 6.371 1.137.094 2.3.117 4.604.114 6.906v2.188c0 2.397-.009 4.794-.016 7.191l-.005 4.973q-.006 6.558-.024 13.114-.014 6.687-.02 13.372Q976.033 99.872 976 113c-6.386 1.045-10.056.772-17 0V85H859c-.88 3.523-1.117 6.062-1.098 9.64l.01 3.243.025 3.367.014 3.414q.018 4.168.049 8.336c-3.693 1.231-6.88.872-10.687.563l-2.127-.159q-2.594-.196-5.186-.404-.034-14.447-.052-28.893a9878 9878 0 0 0-.023-13.415q-.016-6.468-.02-12.936-.003-2.472-.01-4.946-.01-3.451-.009-6.904l-.006-3.976C840 39 840 39 841 38c1.93-.263 3.87-.46 5.813-.625 1.058-.095 2.116-.19 3.207-.29 2.661-.076 4.458.212 6.98.915"/><path fill="#3C3839" d="m548.21 37.53 3.751-.007a1320 1320 0 0 1 10.158.038c3.543.022 7.086.021 10.629.023q8.918.011 17.835.06c7.639.04 15.278.057 22.918.067q9.843.014 19.687.045l6.34.016c3.926.01 7.853.03 11.78.051l3.564.008 3.22.022 2.816.013C663 38 663 38 664 39c.1 2.511.139 4.989.125 7.5l.012 2.129c-.01 5.244-.01 5.244-1.137 6.371a71 71 0 0 1-4.524.158l-2.962.03-3.276.017-3.429.03q-5.64.046-11.282.081l-7.798.063q-9.232.074-18.465.138-10.509.076-21.018.16-21.622.17-43.246.323-.039 2.22-.063 4.437l-.035 2.497c-.135 2.058-.135 2.058 1.098 3.066a61 61 0 0 0 4.193.145l2.74.02 3.031.009 3.173.02q3.424.021 6.848.036 5.415.026 10.828.065 15.399.104 30.798.182 9.406.049 18.813.12 3.591.024 7.182.037c3.348.012 6.695.036 10.042.063l3.012.002 2.766.03 2.398.012c4.033.48 5.84 1.85 8.403 4.974 3.057 5.783 2.268 12.494 2.148 18.847l-.004 3.944c-.111 12.076-.111 12.076-2.371 16.494-6.185 3.611-11.973 3.376-18.994 3.249l-3.609-.028q-4.872-.044-9.742-.119c-3.4-.047-6.801-.076-10.202-.108-6.431-.062-12.863-.14-19.294-.223-7.325-.095-14.65-.171-21.976-.247Q555.592 113.29 533 113v-1l1.907-.002q22.972-.022 45.946-.13c7.406-.035 14.812-.06 22.219-.064q9.682-.003 19.367-.065c3.418-.02 6.835-.033 10.253-.025 3.817.005 7.633-.021 11.45-.055l3.43.027c6.248-.064 6.248-.064 11.629-3.019 2.317-3.436 2.444-5.632 2.463-9.76l.015-2.028q.005-2.114-.027-4.226c-.027-2.148 0-4.29.032-6.438q-.005-2.061-.02-4.121l-.017-3.76c-.858-4.424-2.038-5.636-5.647-8.334-3.507-.734-6.954-.67-10.526-.628l-3.21-.022c-3.497-.018-6.993-.002-10.49.013q-3.645-.012-7.289-.031a3450 3450 0 0 0-19.182-.022c-10.242.007-20.483-.024-30.725-.063-3.583-.009-7.165-.003-10.748.004l-6.563-.011c-1 .005-2.001.01-3.032.017l-2.77-.012-2.408.003C547 69 547 69 544 67c-.398-2.496-.398-2.496-.375-5.438l-.023-2.933c.466-3.077.97-3.766 3.398-5.629 2.165-.37 2.165-.37 4.727-.36l2.944-.013 3.226.032h3.4c3.718.001 7.435.025 11.152.048q3.861.009 7.722.013c6.088.01 12.176.034 18.264.064 6.931.033 13.862.05 20.793.065 14.257.031 28.515.085 42.772.151V40l-128 1-1 4h-2q.141 6.486.317 12.97.058 2.205.105 4.408c.046 2.118.104 4.235.164 6.352l.095 3.857c.19 3.776.19 3.776 2.319 8.413h114c1.064 3.193 1.2 5.644 1.25 9l.078 3.187C649 96 649 96 647.775 97.653c-2.305 1.749-3.625 1.717-6.502 1.708l-2.944.012-3.226-.032h-3.4c-3.718-.001-7.435-.025-11.152-.048q-3.861-.009-7.722-.013c-6.088-.01-12.176-.034-18.264-.064-6.931-.033-13.862-.05-20.793-.065-14.257-.031-28.515-.085-42.772-.151v11h-1l-1-13c2.412-1.206 3.912-1.123 6.606-1.12l2.94-.004 3.238.01h3.4c3.722 0 7.445.009 11.168.016l7.726.005q9.143.005 18.285.021 10.407.016 20.815.022 21.411.016 42.822.05l.125-3.813.07-2.144c-.062-2.357-.062-2.357-2.195-5.043-1.931-.437-1.931-.437-4.186-.34h-2.66l-2.925.047-3.075.013q-3.313.018-6.628.055c-3.496.038-6.993.057-10.49.072-8.689.04-17.378.113-26.067.184q-10.999.09-21.999.137c-3.444.02-6.888.057-10.333.095l-6.349.03-2.9.047c-6.103.001-10.286-.88-15.2-4.778-3.895-5.124-2.372-13.457-2.376-19.5l-.037-3.865-.005-3.724-.013-3.399c.342-4.329 1.224-6.887 4.061-10.191 4.95-2.929 9.744-2.415 15.392-2.353"/><path fill="#312E31" d="m699.302 37.76 3.255-.009 3.555.022h3.756q5.09.002 10.183.024c3.548.013 7.097.014 10.646.016 6.718.006 13.436.023 20.155.043 7.649.022 15.298.033 22.948.043q23.6.032 47.2.101c1.549 3.098.832 6.262.562 9.625l-.158 2.14Q821.208 52.384 821 55c-3.317.743-6.374 1.123-9.77 1.114h-2.822l-3.057-.016-3.249-.005q-3.486-.006-6.972-.018-5.508-.019-11.016-.024-11.682-.018-23.364-.051-13.555-.037-27.11-.056-5.442-.01-10.884-.032l-6.624-.01-3.082-.015h-2.787l-2.436-.007c-1.846-.08-1.846-.08-2.827 1.12-.16 2.737-.26 5.452-.316 8.191l-.063 2.485q-.097 3.944-.184 7.886l-.13 5.334Q704.146 87.448 704 94c3.058 1.77 5.252 2.248 8.77 2.24l2.899.009 3.158-.022h3.342c3.647 0 7.293-.016 10.94-.032l7.584-.008q8.962-.012 17.923-.043c6.803-.022 13.606-.033 20.409-.043Q800.012 96.069 821 96c1.223 3.67.88 6.34.562 10.187l-.308 3.856L821 113h-1V99H703c-.919-2.756-1.122-4.36-1.114-7.196v-2.547l.016-2.737.005-2.813c.005-2.965.018-5.93.03-8.895q.008-3.015.014-6.029.017-7.391.049-14.783c2.42-1.21 3.94-1.123 6.644-1.12l2.966-.004 3.265.01h3.43c3.755 0 7.51.009 11.265.016l7.794.005q9.222.005 18.444.021 10.5.016 20.997.022 21.598.016 43.195.05V40q-24.343.125-48.687.288-11.302.076-22.605.134-9.851.05-19.703.12-5.216.04-10.433.061c-3.88.016-7.762.046-11.643.078l-3.499.007c-1.057.01-2.114.022-3.203.034l-2.783.016c-2.613.28-4.236.853-6.444 2.262-1.354 2.709-1.135 4.838-1.145 7.87l-.02 3.733-.003 4.05-.01 4.14q-.009 4.341-.007 8.682c0 3.71-.014 7.42-.031 11.13q-.015 4.277-.013 8.553a858 858 0 0 1-.013 4.104c-.01 1.912-.006 3.825 0 5.738l-.005 3.299c.051 2.923.051 2.923 2.247 5.701l3 1 1-2v3h120v1q-22.701.231-45.402.443-10.541.097-21.082.205-10.173.104-20.347.195-3.88.036-7.761.078-5.437.056-10.873.1l-3.24.04c-13.771.097-13.771.097-18.195-3.266-3.649-5.043-2.77-11.58-2.694-17.514q.003-2.017 0-4.034.004-4.215.052-8.432c.04-3.591.044-7.181.037-10.773-.004-2.774.009-5.549.026-8.323.01-1.964.01-3.929.01-5.893l.05-3.64c.007-1.053.016-2.105.025-3.19.47-3.575 1.475-5.947 3.394-8.996 3.122-2.032 5.622-2.248 9.302-2.24"/><path fill="#262325" d="m857 38 .076 2.355q.175 5.26.361 10.52l.12 3.707.127 3.535.11 3.27c.04 2.594.04 2.594 1.206 4.613h99l1-27c1.756-1.756 4.036-1.132 6.371-1.137l2.129.012 2.129-.012c5.244.01 5.244.01 6.371 1.137.094 2.3.117 4.604.114 6.906v2.188c0 2.397-.009 4.794-.016 7.191l-.005 4.973q-.006 6.558-.024 13.114-.014 6.687-.02 13.372Q976.033 99.872 976 113c-2-2-2-2-2.24-4.936l.013-3.809v-2.099c0-2.294.016-4.588.032-6.883l.008-4.766c.008-4.186.028-8.372.05-12.557.02-4.27.03-8.54.04-12.81.02-8.38.056-16.76.097-25.14h-13v29H855V40h-13v72h13V82q20.092-.034 40.185-.052 9.33-.007 18.658-.023 8.996-.016 17.992-.02 3.44-.003 6.878-.01 4.803-.01 9.605-.009l2.897-.01 2.634.004 2.296-.003C958 82 958 82 960 83v30h-1V85H859c-.88 3.523-1.117 6.062-1.098 9.64l.01 3.243.025 3.367.014 3.414q.018 4.168.049 8.336c-3.693 1.231-6.88.872-10.687.563l-2.127-.159q-2.594-.196-5.186-.404-.034-14.447-.052-28.893a9878 9878 0 0 0-.023-13.415q-.016-6.468-.02-12.936-.003-2.472-.01-4.946-.01-3.451-.009-6.904l-.006-3.976C840 39 840 39 841 38c1.93-.263 3.87-.46 5.813-.625 1.058-.095 2.116-.19 3.207-.29 2.661-.076 4.458.212 6.98.915"/><path fill="#363434" d="m1001.504 37.873 3.62-.009 4.009.007 4.192-.006q5.71-.005 11.417 0c3.974.003 7.948 0 11.923 0q10.013-.004 20.024.005 11.593.007 23.185-.002 9.935-.007 19.87-.003 5.94.003 11.883-.001 5.584-.004 11.17.005 2.055 0 4.11-.002 2.795-.002 5.589.006l3.166.001C1138 38 1138 38 1139 39c.1 2.511.139 4.989.125 7.5l.012 2.129c-.01 5.244-.01 5.244-1.137 6.371-1.62.108-3.243.147-4.866.158l-3.191.03-3.531.017-3.695.03q-5.03.04-10.06.068-5.25.035-10.502.076-9.95.074-19.9.138-11.325.076-22.65.16-23.303.17-46.605.323v11l4.739-.007q22.05-.03 44.103-.045 11.339-.007 22.677-.023 9.879-.015 19.758-.02 5.234 0 10.468-.01c3.889-.009 7.778-.009 11.667-.009l3.53-.01 3.192.004 2.79-.003C1138 67 1138 67 1139 68c.072 2.02.084 4.042.063 6.062l-.028 3.348L1139 80c-2-3-2-3-2-10l-127-1c0-15 0-15 1-16a82 82 0 0 1 4.904-.12l3.217-.004 3.559.01h3.724q5.07.001 10.14.013 5.294.007 10.587.008 10.03.005 20.06.021 11.415.016 22.83.022 23.49.016 46.979.05V40H997v56l-1 17h-1q-.034-14.446-.052-28.893a9878 9878 0 0 0-.023-13.415q-.016-6.468-.02-12.936-.003-2.472-.01-4.946-.01-3.451-.009-6.904l-.006-3.976c.205-4.99 2.135-4.055 6.624-4.057"/><path fill="#181517" d="m1137 77 2 3-1 5h-125v11l4.694-.013q21.853-.06 43.705-.09 11.235-.014 22.472-.048 9.79-.03 19.58-.037 5.187-.003 10.373-.023c3.856-.017 7.71-.017 11.566-.016l3.492-.022 3.17.008 2.765-.005C1137 96 1137 96 1139 98c.145 2.58.187 5.05.125 7.625l-.027 2.14A625 625 0 0 1 1139 113c-3.146 1.049-5.335 1.123-8.638 1.12l-3.556.004-3.906-.01h-4.11q-5.581-.001-11.162-.013c-3.888-.006-7.776-.006-11.664-.008q-11.043-.005-22.088-.021-12.573-.015-25.146-.022-25.866-.016-51.73-.05l-1-2h141l-1-13h-126V82h127z"/><path fill="#31243C" d="M222 53q21.24-.106 42.48-.155c6.575-.016 13.15-.037 19.724-.071 6.341-.033 12.682-.05 19.024-.059q3.635-.008 7.268-.032c3.386-.022 6.772-.025 10.158-.024l3.055-.032 2.792.012 2.428-.008c2.64.47 3.512 1.206 5.071 3.369.31 3.048.444 5.888.434 8.938l.015 2.656q.01 2.779-.003 5.557c-.008 2.839.02 5.675.052 8.513q.003 2.7-.002 5.398l.034 2.576c-.07 5.908-.07 5.908-2.278 8.086-2.519 1.427-3.91 1.65-6.782 1.65l-2.736.021-2.979-.023-3.154.011c-3.443.008-6.885-.005-10.328-.02q-3.582 0-7.165.002-7.507 0-15.015-.029c-6.428-.023-12.855-.023-19.283-.016q-7.396.002-14.793-.013-3.555-.006-7.112-.004c-3.306 0-6.613-.012-9.92-.028l-2.99.007-2.72-.021-2.369-.007C223 99 223 99 221 97c-.247-1.822-.247-1.822-.243-4.05l-.01-2.529.023-2.734v-2.802q.006-2.934.024-5.87c.018-3.003.02-6.005.02-9.007q.007-2.848.018-5.695l.003-2.734.02-2.528.011-2.23C221 55 221 55 222 53m0 2q-.037 8.517-.055 17.035-.008 2.9-.02 5.8c-.013 2.772-.018 5.545-.023 8.317l-.015 2.636c0 2.071.05 4.142.113 6.212 1.541 1.541 2.976 1.144 5.124 1.165l2.694.034 2.978.022 3.12.035c3.42.037 6.842.066 10.264.096l7.103.07q7.458.072 14.916.136 9.572.083 19.144.185 7.34.074 14.68.139 3.53.031 7.06.07 4.93.048 9.862.086l2.966.034 2.71.017 2.357.021c2.228-.032 2.228-.032 5.022-1.11q-.177-8.517-.372-17.035-.065-2.9-.125-5.8-.088-4.159-.187-8.317l-.05-2.636c.284-3.923.284-3.923-1.266-7.212a61 61 0 0 0-4.22-.12l-2.758-.004-3.05.01h-3.192c-3.501 0-7.002.009-10.503.016l-7.26.005q-9.575.006-19.15.024-9.763.014-19.525.02-19.17.016-38.342.049"/><path fill="#0C0C0C" d="m217.269 37.626 3.233-.021 3.531.023 3.731-.011c3.374-.007 6.748 0 10.122.013 3.533.011 7.066.007 10.6.005q8.9 0 17.801.029c6.857.021 13.713.024 20.569.018q9.9-.007 19.798.011 4.21.007 8.42.004c3.921-.002 7.842.012 11.764.028l3.525-.007 3.241.021 2.809.007c3.584.352 6.445 1.394 9.325 3.563 6.49 8.696 3.38 27.042 3.15 37.187-.076 3.523-.125 7.046-.171 10.57q-.065 3.374-.135 6.746l-.038 3.18c-.254 9.44-.254 9.44-3.544 13.008-3.58 1.74-6.443 2.25-10.402 2.247l-3.246.013-3.53-.017-3.741.006q-5.067.003-10.134-.013c-3.537-.01-7.074-.007-10.61-.007q-8.905-.002-17.81-.023-10.297-.023-20.594-.02-9.907 0-19.816-.013-4.216-.006-8.433-.006-5.882-.004-11.765-.022l-3.542.002-3.228-.013-2.81-.005c-3.205-.177-5.019-.873-7.527-2.879-1.812-2.25-1.812-2.25-2.062-5L206 104c1.5 1.375 1.5 1.375 3 3v2h2v2q25.125.07 50.251.104 11.667.014 23.332.047 10.168.03 20.335.037 5.385.003 10.769.023c4.006.017 8.011.017 12.017.016l3.612.022 3.306-.008 2.871.005c2.678-.263 4.285-.737 6.507-2.246 1.062-3.186 1.127-5.454 1.13-8.8l.009-3.61-.006-3.903q0-2 .003-4 .001-4.193-.006-8.383-.006-5.373.004-10.744.005-4.13 0-8.261 0-2.944.005-5.888l-.01-3.61-.002-3.183c-.014-2.73-.014-2.73-1.127-5.618-3.506-1.845-6.472-2.253-10.396-2.267l-3.241-.026-3.525.002-3.737-.02q-5.06-.023-10.121-.024-3.163-.001-6.326-.01-11.035-.028-22.072-.026c-6.857.002-13.713-.02-20.57-.051q-8.835-.038-17.672-.036c-3.517 0-7.033-.005-10.55-.026-3.92-.023-7.838-.014-11.757-.002l-3.531-.034-3.233.026-2.807-.004c-3.183.644-4.314 2.143-6.462 4.498h-2c2.277-5.502 5.383-7.375 11.269-7.374"/><path fill="#171616" d="M529 47h1l.06 1.769c.097 2.702.206 5.404.315 8.106.03.918.062 1.836.094 2.781.31 7.324 1.206 14.369 3.531 21.344h114c1.064 3.193 1.2 5.644 1.25 9l.078 3.188C649 96 649 96 647.775 97.653c-2.305 1.749-3.625 1.717-6.502 1.708l-2.944.012-3.226-.032h-3.4c-3.718-.001-7.435-.025-11.152-.048q-3.861-.009-7.722-.013c-6.088-.01-12.176-.034-18.264-.064-6.931-.033-13.862-.05-20.793-.065-14.257-.031-28.515-.085-42.772-.151v11h-1l-1-13c2.412-1.206 3.912-1.123 6.606-1.12l2.94-.004 3.238.01h3.4c3.722 0 7.445.009 11.168.016l7.726.005q9.143.005 18.285.021 10.408.015 20.815.022 21.411.016 42.822.05l.125-3.812.07-2.145c-.062-2.357-.062-2.357-2.195-5.043-1.931-.437-1.931-.437-4.186-.34h-2.66l-2.925.047-3.075.013q-3.313.018-6.628.055c-3.496.038-6.993.057-10.49.072-8.689.04-17.378.113-26.067.184q-10.999.09-21.999.137c-3.444.02-6.888.057-10.333.095l-6.349.03-2.9.047c-6.103.001-10.286-.88-15.2-4.778-2.707-3.56-2.305-7.775-2.286-12.078l.01-3.789.025-3.945.014-3.992q.018-4.879.049-9.758"/><path fill="#282629" d="M379 53q21.24-.034 42.48-.052 9.863-.007 19.724-.023 9.511-.016 19.024-.02 3.634-.003 7.268-.01 5.079-.01 10.158-.009l3.055-.01 2.792.004 2.428-.003C488 53 488 53 491 54c1.94 3.879 1.228 8.671 1.25 12.938l.063 3.076.015 2.95.028 2.708c-.438 2.864-1.1 3.561-3.356 5.328-2.069.372-2.069.372-4.492.367l-2.787.017-3.052-.028-3.218.007c-3.517.003-7.035-.016-10.553-.035l-7.31-.006q-7.665-.007-15.33-.04c-6.565-.03-13.13-.04-19.696-.044q-7.548-.008-15.096-.026l-7.266-.015q-5.064-.01-10.128-.036l-3.064-.003-2.77-.018-2.421-.009C380 81 380 81 379 80c-.088-2-.107-4.002-.098-6.004l.01-3.682.026-3.876.013-3.89q.018-4.773.049-9.548m3 2c-1.392 4.176-1.224 8.126-1.25 12.5l-.062 2.629-.016 2.527-.028 2.307c.46 2.635 1.28 3.383 3.356 5.037 2.036.425 2.036.425 4.309.323l2.664-.013 2.914-.061 3.076-.028c3.36-.035 6.72-.09 10.08-.147q3.491-.041 6.982-.08c6.13-.07 12.261-.16 18.391-.252 6.254-.09 12.508-.165 18.762-.24Q469.589 79.275 488 79c1.547-2.94 2.255-4.919 2.266-8.258l.007-2.394-.023-2.473.023-2.496-.007-2.387-.007-2.176c-.11-2.067-.11-2.067-2.259-3.816-1.973-.297-1.973-.297-4.265-.24l-2.71-.009-2.983.022h-3.133c-3.43 0-6.861.016-10.292.032l-7.12.008a8126 8126 0 0 0-18.772.05c-6.38.02-12.762.03-19.143.04Q400.791 54.934 382 55"/><path fill="#3A393A" d="m52.212 37.846 3.424-.026 3.79-.013 3.967-.025c4.353-.026 8.707-.041 13.06-.055l4.492-.017q9.342-.033 18.684-.051 13.396-.023 26.794-.107 9.414-.056 18.828-.063c3.75-.004 7.5-.016 11.25-.048 4.185-.036 8.37-.032 12.555-.024l3.766-.05c8.403.061 8.403.061 12.362 2.982 4.066 5.936 4.066 5.936 4.075 9.815l.019 2.528-.012 2.718.005 2.798q.002 2.926-.01 5.853c-.011 2.993 0 5.986.012 8.98q0 2.841-.007 5.682l.012 2.724-.02 2.518c0 .733-.002 1.465-.004 2.22C189 88 189 88 187 90l-.06-3.884c-.076-4.756-.165-9.512-.257-14.268q-.059-3.087-.105-6.175c-.046-2.959-.104-5.917-.164-8.876l-.035-2.788-.06-2.608-.04-2.288c-.332-2.518-.818-4.023-2.279-6.113-3.62-1.78-6.566-2.255-10.575-2.278l-3.36-.034-3.658-.007-3.874-.03c-3.498-.028-6.995-.043-10.493-.056-3.658-.015-7.316-.042-10.974-.068q-10.386-.069-20.771-.116c-9.359-.046-18.717-.107-28.076-.167C77.48 40.15 62.74 40.077 48 40v70l-2-1q-.034-13.665-.052-27.329-.007-6.345-.023-12.688-.016-6.118-.02-12.235-.003-2.34-.01-4.679-.01-3.264-.009-6.53l-.006-3.761c.205-4.744 2.07-3.908 6.332-3.932"/><path fill="#302E31" d="M545 54c2.334 3.646 2.08 6.764 2 11 1.553 1.553 3.031 1.134 5.193 1.145l2.74.02 3.031.009 3.173.02q3.424.021 6.848.036 5.415.026 10.828.065 15.399.105 30.798.182 9.406.049 18.813.12 3.591.024 7.182.037c3.348.012 6.695.036 10.042.063l3.012.002 2.766.03 2.398.012c4.033.48 5.84 1.85 8.403 4.974 3.057 5.783 2.268 12.494 2.148 18.847l-.004 3.944c-.111 12.076-.111 12.076-2.371 16.494-6.185 3.611-11.973 3.376-18.994 3.249l-3.609-.028q-4.872-.044-9.742-.119c-3.4-.047-6.801-.076-10.202-.108-6.431-.062-12.863-.14-19.294-.223-7.325-.095-14.65-.171-21.976-.247A18752 18752 0 0 1 533 113v-1l1.907-.002q22.972-.022 45.946-.13c7.406-.035 14.812-.06 22.219-.064q9.682-.003 19.367-.065c3.418-.02 6.835-.033 10.253-.025 3.817.005 7.633-.021 11.45-.055l3.43.027c6.248-.064 6.248-.064 11.629-3.019 2.317-3.436 2.444-5.632 2.463-9.76l.015-2.028q.005-2.114-.027-4.226c-.027-2.148 0-4.29.032-6.438q-.005-2.061-.02-4.121l-.017-3.76c-.858-4.424-2.038-5.636-5.647-8.334-3.507-.734-6.954-.67-10.526-.628l-3.21-.022c-3.497-.018-6.993-.002-10.49.013q-3.645-.012-7.289-.031c-6.394-.029-12.788-.03-19.182-.022-10.242.007-20.483-.024-30.725-.063-3.583-.009-7.165-.003-10.748.004l-6.563-.011c-1 .005-2.001.01-3.032.017l-2.77-.012-2.408.003C547 69 547 69 544 67c-.328-2.531-.328-2.531-.25-5.5.015-.98.03-1.96.047-2.969C544 56 544 56 545 54"/><path fill="#373236" d="M61 53h24v2l-21 1-.187 10.375-.083 3.267-.023 2.569-.048 2.634L64 77c3.08 2.053 3.702 2.25 7.175 2.254l2.575.017 2.814-.012 2.972.01c3.249.01 6.497.003 9.745-.003l6.76.005q7.086.005 14.172-.01a4718 4718 0 0 1 18.19.007 5236 5236 0 0 0 13.959 0q3.354-.003 6.708.005c3.122.005 6.244-.003 9.366-.014l2.814.012 2.575-.017 2.237-.002c2.263-.149 2.263-.149 4.938-2.252a70 70 0 0 0 .313-8.375l.01-2.328c-.042-4.34-.288-6.226-2.323-10.297H86l1-3q16.35-.106 32.701-.155c5.062-.016 10.123-.037 15.184-.071 4.882-.033 9.765-.05 14.647-.059a983 983 0 0 0 5.594-.032c2.608-.022 5.215-.025 7.822-.024l2.348-.032c5.211.03 5.211.03 7.682 1.75 2.292 3.64 1.489 8.465 1.46 12.623l.06 3.063-.002 2.937.006 2.688C174 78 174 78 172.257 79.622c-2.566 1.567-3.898 1.75-6.876 1.739l-2.796.012-3.045-.032h-3.223c-3.518-.001-7.034-.025-10.551-.048q-3.657-.009-7.315-.013c-6.418-.011-12.836-.04-19.254-.074-6.549-.03-13.097-.044-19.646-.06C86.7 81.114 73.85 81.062 61 81z"/><path fill="#151315" d="M855 82q20.092-.034 40.185-.052 9.33-.007 18.658-.023 8.996-.016 17.992-.02 3.44-.003 6.878-.01 4.803-.01 9.605-.009l2.897-.01 2.634.004 2.296-.003C958 82 958 82 960 83v30h-1V85H859c-.88 3.523-1.117 6.062-1.098 9.64l.01 3.243.025 3.367.014 3.414q.018 4.168.049 8.336c-3.696 1.232-6.88.871-10.687.563L840 113l1-17h1v16h13z"/><path fill="#3C3A3B" d="M365 38q26.051-.141 52.103-.207c8.065-.02 16.13-.049 24.193-.095q10.545-.06 21.09-.074c3.72-.006 7.442-.018 11.163-.047 4.157-.032 8.313-.033 12.47-.031l3.73-.044c6.327.03 10.534.057 15.251 4.498 2.393 4.767 2.321 9.61 2.336 14.836l.02 2.54q.015 2.65.015 5.3c.004 2.684.04 5.367.078 8.05q.009 2.587.012 5.172l.043 2.403c-.047 5.87-1.58 9.61-4.504 14.699h-2l-2 4-2-5 2.375-.75c3.065-1.46 3.421-2.174 4.625-5.25.304-2.02.304-2.02.275-4.138l.029-2.438-.003-2.608.013-2.704q.008-2.828.002-5.656c-.003-2.88.02-5.758.045-8.638q.004-2.751.002-5.502l.028-2.601c-.036-4.686-.242-7.97-3.391-11.715-3.081-1.027-5.218-1.137-8.448-1.158l-3.43-.03-3.763-.017-3.962-.03q-5.38-.04-10.76-.068-5.62-.035-11.243-.076-10.646-.074-21.291-.138-12.12-.076-24.24-.16-24.93-.17-49.863-.323z"/><path fill="#1B191B" d="M184 92v3c-3.497 1.576-6.214 2.249-10.043 2.24l-3.004.009-3.26-.022h-3.461c-3.772 0-7.543-.016-11.314-.032l-7.848-.008q-9.27-.011-18.54-.043c-7.037-.022-14.075-.033-21.112-.043Q83.709 97.069 62 97l-1-3 1.81.006q21.822.066 43.644.098 10.552.014 21.106.047 10.182.032 20.365.039 3.886.005 7.773.021c3.627.015 7.254.017 10.88.016l3.25.022c5.124-.014 9.381-.183 14.172-2.249"/><path fill="#1A181A" d="M379 94h104c4 9 4 9 3 12-4-6.625-4-6.625-4-10l-2 1c-3.081.123-6.14.186-9.223.205l-2.898.03q-4.755.047-9.512.081l-6.583.063q-8.675.082-17.35.153-8.848.077-17.696.161-17.37.162-34.738.307l-1 7h-1z"/><path fill="#322F30" d="m217.269 37.626 3.233-.021 3.531.023 3.731-.011c3.374-.007 6.748 0 10.122.013 3.533.011 7.066.007 10.6.005q8.9 0 17.801.029c6.857.021 13.713.024 20.569.018q9.9-.007 19.798.011 4.21.007 8.42.004c3.921-.002 7.842.012 11.764.028l3.525-.007 3.241.021 2.809.007c3.613.355 6.478 1.383 9.337 3.629 2.616 3.4 2.362 7.23 2.312 11.375l-.027 2.984L348 58h-1l-.48-3.21q-.352-2.084-.708-4.165l-.306-2.117c-.36-2.305-.36-2.305-1.506-5.508-3.49-1.875-6.475-2.253-10.396-2.267l-3.241-.026-3.525.002-3.737-.02q-5.06-.023-10.121-.024-3.163-.001-6.326-.01-11.035-.028-22.072-.026c-6.857.002-13.713-.02-20.57-.051q-8.835-.038-17.672-.036c-3.517 0-7.033-.005-10.55-.026-3.92-.023-7.838-.014-11.757-.002l-3.531-.034-3.233.026-2.807-.004c-3.183.644-4.314 2.143-6.462 4.498h-2c2.277-5.502 5.383-7.375 11.269-7.374"/><path fill="#2F2D2F" d="M1010 57c1.803 3.607 2.466 6.084 3 10l1.95-.003q23.445-.033 46.892-.049 11.338-.007 22.677-.023 9.879-.015 19.758-.02 5.234 0 10.468-.01c3.889-.009 7.778-.009 11.667-.009l3.53-.01 3.192.004 2.79-.003C1138 67 1138 67 1139 68c.072 2.02.084 4.042.063 6.063l-.028 3.347L1139 80c-2-3-2-3-2-10l-127-1z"/><path fill="#1C171C" d="M652 67c3.97.277 5.724.767 8.813 3.375 4.407 5.29 3.373 11.338 3.372 17.912.002 2.008.021 4.016.04 6.024l.005 3.865.013 3.528c-.264 3.586-.59 6.088-2.243 9.296-6.186 3.61-11.972 3.376-18.994 3.249l-3.609-.028q-4.872-.044-9.742-.119c-3.4-.047-6.801-.076-10.202-.108-6.431-.062-12.863-.14-19.294-.223-7.325-.095-14.65-.171-21.976-.247A18752 18752 0 0 1 533 113v-1l1.907-.002q22.972-.022 45.946-.13c7.406-.035 14.812-.06 22.219-.064q9.682-.003 19.367-.065c3.418-.02 6.835-.033 10.253-.025 3.817.005 7.633-.021 11.45-.055l3.43.027c6.248-.064 6.248-.064 11.629-3.019 2.317-3.436 2.444-5.632 2.463-9.76l.015-2.028q.005-2.114-.027-4.226c-.027-2.148 0-4.29.032-6.438q-.005-2.061-.02-4.121l-.017-3.76c-.817-4.209-2.341-5.69-5.647-8.334-2.678-.872-2.678-.872-5-1z"/><path fill="#373639" d="M222 53q21.24-.106 42.48-.155c6.575-.016 13.15-.037 19.724-.071 6.341-.033 12.682-.05 19.024-.059q3.635-.008 7.268-.032c3.386-.022 6.772-.025 10.158-.024l3.055-.032 2.792.012 2.428-.008c2.558.456 3.444 1.397 5.071 3.369l-2 4v-5l-109 1z"/><path fill="#16111D" d="M364 40h3q.034 13.639.052 27.277.007 6.332.023 12.665.016 6.108.02 12.216.003 2.333.01 4.667.01 3.261.009 6.522l.006 3.755C367 110 367 110 366 112h15l-1 3-3-1a140 140 0 0 0-6.187-.062l-3.293.027L365 114c-1.146-3.649-1.12-7.072-1.114-10.88v-2.07q.002-3.376.016-6.753l.005-4.691q.006-6.165.024-12.33.014-6.294.02-12.588.016-12.345.049-24.688"/><path fill="#1E1C1F" d="M330 55h2c2.573 3.86 2.288 7.06 2.266 11.535l.005 2.529a959 959 0 0 1-.01 5.288c-.011 2.704 0 5.407.012 8.11q0 2.568-.007 5.136l.012 2.459C334.23 95.77 334.23 95.77 332 98c-2.47.243-2.47.243-5.566.23l-3.413-.005-3.584-.037-3.501-.002c-6.39-.033-12.601-.34-18.936-1.186v-1h35l-1-5a269 269 0 0 1-.316-8.363l-.063-2.4q-.097-3.775-.183-7.55l-.131-5.134Q330.147 61.277 330 55"/><path fill="#312C2D" d="m548.248 37.524 3.726.028c3.36.03 6.718.081 10.077.143 3.516.06 7.031.09 10.547.124 6.65.069 13.302.163 19.952.266 7.574.117 15.149.205 22.723.29 15.576.176 31.152.389 46.727.625v1l-128 1-1 4h-2v23h-1c-.175-4.062-.28-8.123-.375-12.187l-.152-3.487-.059-3.369-.095-3.094c.778-3.272 1.99-4.75 4.618-6.818 4.429-2.243 9.464-1.635 14.31-1.52"/><path fill="#433E44" d="M87 53q11.268-.035 22.536-.052 5.236-.007 10.471-.023C135.033 52.876 150.01 52.858 165 54v1c-54.278 1.21-54.278 1.21-79 1z"/><path fill="#282627" d="m998.225 37.978 2.904.143 3.135.147 3.298.17 3.311.158q4.064.195 8.127.404v1h-22l.016 4.87q.026 9.062.039 18.122.008 3.9.02 7.8c.047 14.105.055 28.14-1.075 42.208h-1q-.034-14.446-.052-28.893-.007-6.708-.023-13.415-.016-6.468-.02-12.936-.003-2.472-.01-4.946-.01-3.451-.009-6.904l-.006-3.976c.16-3.92.16-3.92 3.345-3.952"/><path fill="#171518" d="m538.625 95.938 2.14.013q2.618.02 5.235.049v1l97 1v1H531v11h-1l-1-13c3.065-1.533 6.268-1.103 9.625-1.062"/><path fill="#4C4B4B" d="m217.302 37.64 3.255-.013 3.555.032h3.756c3.394 0 6.788.016 10.183.037 3.548.019 7.097.02 10.646.024 6.718.01 13.436.034 20.155.064 7.649.033 15.298.05 22.948.065q23.6.048 47.2.151v1l-1.935.002q-23.325.022-46.648.13c-7.52.035-15.039.06-22.559.064q-9.833.003-19.664.065c-3.47.02-6.94.033-10.41.025-3.876-.009-7.752.021-11.628.055l-3.477-.027c-6.683.02-6.683.02-12.314 3.227L208 45h-2c2.286-5.523 5.398-7.378 11.302-7.36"/><path fill="#252225" d="M648 84h1c.081 1.937.14 3.875.188 5.813l.105 3.269C649 96 649 96 647.765 97.662c-2.26 1.713-3.485 1.696-6.302 1.66l-2.817-.012-3.084-.061-3.253-.028c-3.555-.035-7.11-.09-10.664-.147l-7.386-.08c-6.486-.07-12.971-.16-19.457-.252-6.615-.09-13.231-.165-19.847-.24Q555.478 98.275 536 98v-1l110-1v-9h2z"/><path fill="#252026" d="M206 104c1.5 1.375 1.5 1.375 3 3v2h2v2l121 1v1q-23.196.231-46.392.443-10.77.098-21.54.205-9.386.094-18.77.177-4.972.044-9.942.096-5.547.056-11.092.1l-3.339.04-3.047.021-2.65.025c-3.159-.152-4.95-.884-7.416-2.857-1.812-2.25-1.812-2.25-2.062-5z"/><path fill="#201C22" d="M221 55h1l1 40 44 1v2q-9.585.037-19.171.055-3.264.008-6.527.02c-3.12.013-6.24.018-9.36.023l-2.968.015h-2.73l-2.415.007C222 98 222 98 221 97a271 271 0 0 1-.098-9.285l.005-2.82c.005-2.986.018-5.972.03-8.957q.008-3.03.014-6.057.017-7.44.049-14.881"/><path fill="#3E3D3E" d="m1011 53 109 1v1l-107 1-1 5c-1.062-1.75-1.062-1.75-2-4z"/><path fill="#3F3E3F" d="m547 53 110 1v1l-110 1-1 2z"/><path fill="#272628" d="M1010 57c1.803 3.607 2.466 6.084 3 10l3.282-.016q6.12-.026 12.24-.039 2.63-.008 5.262-.02c10.13-.05 20.127.058 30.216 1.075v1h-54z"/><path fill="#221F20" d="M505 48h2q.149 8.111.22 16.223.03 2.756.082 5.51c.049 2.652.071 5.303.089 7.954l.062 2.46c.002 5.957-1.472 9.696-4.453 14.853h-2l-2 4-2-5 2.375-.75c3.066-1.46 3.418-2.175 4.625-5.25.321-2.014.321-2.014.319-4.126l.06-2.426.035-2.589.059-2.673c.06-2.812.106-5.624.152-8.436l.117-5.727q.142-7.01.258-14.023"/><path fill="#2D292F" d="M61 53h24v2l-21 1-.187 10.313-.083 3.239-.023 2.561-.048 2.619C64.068 77.45 64.896 78.304 67 80l-6-1z"/><path fill="#2D2C2E" d="M545 54c2.334 3.646 2.08 6.764 2 11 1.796 1.796 4.514 1.215 6.941 1.281l3.71.114 3.912.105c15.31.422 15.31.422 22.437 1.5v1q-7.822.074-15.643.11-2.662.015-5.323.04c-2.549.025-5.098.036-7.647.045l-2.406.032c-3.863 0-5.69-.033-8.981-2.227-.328-2.531-.328-2.531-.25-5.5.015-.98.03-1.96.047-2.969C544 56 544 56 545 54"/><path fill="#1D1C1E" d="m186 45 3 1q.075 8.918.11 17.834.016 3.036.04 6.07c.025 2.905.036 5.809.045 8.713l.032 2.753v2.547l.014 2.248C189 88 189 88 187 90z"/><path fill="#242023" d="m822 39-1 16c-3.769.754-6.567 1.112-10.312 1.063l-2.676-.028L806 56v-3h14V40h-20v-1c3.104-.197 6.208-.38 9.313-.562l2.67-.17 2.568-.147 2.364-.143C819 38 819 38 822 39"/><path fill="#1F1C1F" d="M652 67c3.97.277 5.724.767 8.813 3.375 3.397 4.077 3.307 7.112 3.285 12.262l-.01 3.935-.025 4.115q-.009 2.076-.014 4.15Q664.03 99.92 664 105h-1c-.605-4.785-1.06-9.474-1.14-14.297l-.06-2.715q-.05-2.76-.054-5.523c-.127-4.615-.234-6.797-3.117-10.555-2.674-1.942-4.365-2.63-7.629-2.91z"/><path fill="#2A282A" d="M304 39q8.22-.148 16.443-.22 2.796-.03 5.593-.082c2.68-.048 5.36-.071 8.042-.089l2.523-.062c5.8-.002 5.8-.002 8.91 2.36 2.733 3.842 2.607 7.217 2.551 11.843l-.027 2.984L348 58h-1l-.48-3.21q-.352-2.084-.707-4.165l-.307-2.117c-.36-2.305-.36-2.305-1.506-5.508-4.14-2.392-8.484-2.341-13.145-2.414l-2.332-.059c-2.445-.06-4.89-.106-7.336-.152l-4.99-.117Q310.1 40.116 304 40z"/><path fill="#312F30" d="M181 38c3.571 1.88 5.547 3.17 7 7l-1.687-.875c-4.299-2.091-7.742-3.372-12.562-3.444l-3.093-.06-3.303-.035-3.408-.059c-3.587-.06-7.173-.106-10.76-.152l-7.302-.117Q136.943 40.115 128 40v-1l1.967.007q10.098.032 20.195.048 3.772.008 7.546.02c3.606.013 7.213.018 10.82.023l3.43.015h3.155l2.793.007c2.082.114 2.082.114 3.094-1.12"/><path fill="#262427" d="M456 94h27c4 9 4 9 3 12-4-6.625-4-6.625-4-10h-26z"/><path fill="#2B2A2B" d="m379 53 1 3h2l-.016 1.88q-.029 4.216-.046 8.432l-.026 2.96-.01 2.841-.016 2.619c.02 2.435.02 2.435 1.114 5.268h9v1q-2.97.039-5.937.063l-3.34.035C380 81 380 81 379 80c-.088-2-.107-4.002-.098-6.004l.01-3.682.026-3.876.013-3.89q.018-4.773.049-9.548"/><path fill="#121114" d="m61 96 2 1v17l-3 1v-2l-1.703.496c-2.428.533-4.566.603-7.047.567l-2.422-.028L47 114l-1-5 2 1v2h13z"/><path fill="#100D0F" d="M841 96h1v16h13V98h1l2 15c-3.696 1.232-6.88.871-10.687.563L840 113z"/><path fill="#252122" d="M960 83v30h-1V85l-23-1v-1c3.437-.197 6.875-.38 10.313-.562l2.958-.17 2.842-.147 2.619-.143C957 82 957 82 960 83"/><path fill="#121011" d="m487 104 1 2h2l1 6 14-1-1-5h2c2.109 3.473 2.109 3.473 1.559 6.14L507 114a901 901 0 0 1-7.812.125c-.738.017-1.476.034-2.237.05-3.863.036-5.66.019-8.951-2.175-.7-2.663-.777-5.24-1-8"/><path fill="#373337" d="M222 53h26v2l-25 1z"/><path fill="#2F2C2F" d="M491 56h1c.087 3.604.14 7.208.188 10.813l.076 3.103.029 2.979.048 2.745c-.402 2.784-1.178 3.636-3.341 5.36-1-3-1-3 0-6 .204-2.67.372-5.327.5-8 .365-7.595.365-7.595 1.5-11"/><path fill="#3A363A" d="m547 53 40 1v1l-40 1-1 2z"/><path fill="#2D292D" d="M221 55h1a100882 100882 0 0 1 .781 30.957l.067 2.604.114 4.56c.033 1.626.038 3.253.038 4.879l-2-1z"/><path fill="#201D21" d="M707 96q3.093-.04 6.188-.062l3.48-.036c2.925.086 5.495.42 8.332 1.098v1c-4.625 1.177-9.079 1.114-13.812 1.063l-2.39-.014Q705.9 99.029 703 99l4-1z"/><path fill="#100C0F" d="M662 96h1q.039 2.906.063 5.813l.035 3.269C663 108 663 108 662 111c-4.557 2.413-7.768 3.383-13 3v-2l3.188-.187c4.66-.994 6.1-1.904 8.812-5.813.688-3.334.927-6.6 1-10"/><path fill="#2A2A2B" d="M702 54h2c1.241 3.724 1.018 7.084.879 10.95l-.072 2.34q-.116 3.7-.245 7.397l-.158 5.018Q704.21 85.853 704 92h-1z"/><path fill="#433C41" d="m217.86 37.707 3.378.03 3.512.075 3.559.042q4.346.053 8.691.146v1l-2.016.012a723 723 0 0 0-9.109.175c-1.57.01-1.57.01-3.172.018-6.765.193-9.964.924-14.703 5.795h-2c2.419-5.845 5.671-7.388 11.86-7.293"/><path fill="#1C181C" d="M206 104c1.5 1.375 1.5 1.375 3 3v2h2v2l18 1v1q-3.906.291-7.812.563l-2.237.17c-4.588.31-7.442.475-11.138-2.483-1.813-2.25-1.813-2.25-2.063-5z"/><path fill="#120F12" d="M346 96h1c1.43 9.832 1.43 9.832-.125 14.063-2.304 2.38-3.625 3.215-6.875 3.937-2.732-.142-5.292-.541-8-1v-1l2.117-.402 2.758-.535 2.742-.528C342 110.1 342 110.1 344 109c.693-3.04.693-3.04 1.125-6.562l.508-3.63z"/><path fill="#292626" d="M181 38c3.571 1.88 5.547 3.17 7 7l-1.687-.875c-5.101-2.482-9.453-3.49-15.125-3.75l-2.1-.117A693 693 0 0 0 164 40v-1l3.465.035 4.472.028 2.288.025c1.925.009 3.85-.036 5.775-.088z"/><path fill="#232022" d="M505 83c1.117 1.734 1.117 1.734 2 4-.68 2.14-.68 2.14-1.875 4.25l-1.18 2.14L503 95h-2l-2 4-2-5 2.313-.437c3.735-2.172 4.058-4.641 5.207-8.665z"/><path fill="#1F1B1F" d="M814 96h7c1.223 3.67.88 6.34.563 10.188l-.31 3.855L821 113h-1V99h-4v-2z"/><path fill="#3A373A" d="m1011 53 15 1v1l-13 1-1 5c-1.062-1.75-1.062-1.75-2-4z"/><path fill="#171517" d="m365 110 1 2h15l-1 3-3-1a140 140 0 0 0-6.187-.062l-3.293.027L365 114l-1-2z"/><path fill="#2D2B2D" d="M856 65q2.471.423 4.938.875l2.777.492L866 67l1 2h-11z"/><path fill="#2B292C" d="M222 53h18v1l-2.703.184-3.547.254c-1.16.08-2.32.162-3.516.246-2.544.248-4.794.597-7.234 1.316z"/><path fill="#1D181B" d="M545 54c2.09 3.397 2.421 6.043 2 10-1.52 1.684-1.52 1.684-3 3a888 888 0 0 1-.062-5.375l-.036-3.023C544 56 544 56 545 54"/><path fill="#372B31" d="M497 38c3.656.894 5.559 1.445 7.938 4.438C506 45 506 45 505 48l-1.812-2.937c-1.9-3.294-1.9-3.294-5.188-4.063z"/><path fill="#2C2A2D" d="M478 95h5c.7 1.264 1.384 2.537 2.063 3.813l1.16 2.144C487 103 487 103 486 106c-4-6.625-4-6.625-4-10z"/><path fill="#0B0A0C" d="m46 109 2 1v2l8 1v1h-9z"/><path fill="#373338" d="m704 53 16 1v1l-15 1z"/><path fill="#332234" d="M267 96h5v3h-8l3-1z"/><path fill="#09090B" d="M182 89h5l1 2h-2l-1 2c-2.062.625-2.062.625-4 1z"/></svg>